<svg width="41" height="15" viewBox="0 0 41 15" fill="none" xmlns="http://www.w3.org/2000/svg">
<path d="M11.0342 0.17708C11.2506 0.799817 11.4542 1.39487 11.6678 2.01347C9.12012 2.91611 6.60322 3.80986 4.03595 4.71981C4.14284 4.78636 4.18931 4.82742 4.24972 4.8529C8.78709 6.95366 13.5076 8.43188 18.52 8.93414C23.9138 9.47318 29.1455 8.77609 34.1774 6.64403C35.741 5.98271 37.2465 5.20937 38.6727 4.28391C38.7565 4.22668 38.8558 4.18314 38.9327 4.14277L40.0375 5.7605C39.3948 6.15088 38.8123 6.53048 38.2029 6.8617C35.985 8.0852 33.6746 9.0745 31.2422 9.77708C25.5236 11.4255 19.7809 11.4463 14.0191 10.2424C10.4631 9.49782 7.05484 8.31262 3.75841 6.81441C3.63194 6.75517 3.5041 6.70294 3.27649 6.60356C4.14635 9.10978 4.98776 11.5384 5.83628 13.9863C5.2123 14.2062 4.61209 14.4159 3.96432 14.6459C3.74228 14.0149 3.52735 13.4033 3.31661 12.7888C2.43681 10.2591 1.5612 7.72645 0.677213 5.19955C0.359784 4.29392 0.560705 3.85942 1.4659 3.53852C4.58437 2.42808 7.70567 1.32178 10.8298 0.219615C10.8844 0.200551 10.9404 0.192623 11.0384 0.174218L11.0342 0.17708Z" fill="#B7A36F"/>
</svg>
