<svg width="244" height="81" viewBox="0 0 244 81" fill="none" xmlns="http://www.w3.org/2000/svg">
<path d="M11.5478 21.6451C12.3285 19.9851 13.3452 18.6756 14.616 17.7165C15.8869 16.7574 17.4119 16.2778 19.2092 16.2778C20.4074 16.2778 21.5512 16.4807 22.6586 16.8865C23.7661 17.2923 24.7283 17.9194 25.5453 18.7678C26.4167 19.4503 27.0703 20.2065 27.5423 21.0549C28.0143 21.9034 28.3774 22.8809 28.6316 23.9691C28.9039 25.0758 29.1218 26.3853 29.2852 27.9531H30.4289C30.4289 24.836 30.4289 22.346 30.4834 20.4831C30.5197 18.6018 30.5742 17.0156 30.6287 15.6876H29.4849C29.3578 17.1447 29.1036 18.0669 28.7587 18.4543C28.4138 18.8416 27.9054 18.7863 27.2337 18.2698C26.1444 17.3845 24.8735 16.6283 23.4575 15.9643C22.0414 15.3003 20.244 14.9683 18.0473 14.9683C14.5797 14.9683 11.5297 15.7614 8.89722 17.3476C6.2466 18.9338 4.17695 21.1471 2.65193 23.9876C1.14507 26.828 0.382568 30.1296 0.382568 33.9291C0.382568 37.7287 1.10876 41.0855 2.57931 43.8153C4.04986 46.5451 6.10136 48.6477 8.73383 50.1049C11.3844 51.562 14.4708 52.2813 17.9928 52.2813C20.1533 52.2813 21.9324 51.9493 23.3122 51.2853C24.692 50.6213 25.9992 49.8651 27.2337 48.9797C27.9599 48.5002 28.4864 48.4633 28.8132 48.8322C29.1218 49.2011 29.3578 50.1233 29.4849 51.562H30.6287C30.556 50.2155 30.5197 48.5371 30.4834 46.5635C30.4471 44.59 30.4289 41.9893 30.4289 38.78H29.2852C29.0492 41.2884 28.7042 43.2804 28.2322 44.7929C27.7602 46.3053 26.8887 47.5595 25.5816 48.574C24.7828 49.3855 23.8206 49.9942 22.7131 50.4184C21.6057 50.8426 20.4982 51.0455 19.3908 51.0455C17.6297 51.0455 16.1047 50.566 14.7976 49.6253C13.5086 48.6846 12.4374 47.3935 11.6386 45.7704C10.8216 44.1473 10.2225 42.3029 9.84128 40.2186C9.46002 38.1344 9.26032 35.9764 9.26032 33.7078C9.26032 31.4391 9.44187 29.318 9.80497 27.2522C10.1681 25.168 10.749 23.3051 11.5297 21.6451H11.5478Z" fill="white"/>
<path d="M66.3938 47.3015L54.2663 15.5771C53.7398 15.614 53.1588 15.6325 52.5416 15.6325C51.9243 15.6325 51.3434 15.6325 50.8169 15.5771L39.4337 45.2358C38.7438 47.0986 38.0176 48.4082 37.2915 49.1829C36.5653 49.9575 35.8391 50.4186 35.1492 50.5477V51.5622C35.6394 51.4884 36.2203 51.4515 36.8739 51.4331C37.5275 51.4331 38.2174 51.4146 38.9435 51.4146C39.9784 51.4146 40.9951 51.4146 41.9936 51.4331C42.9921 51.4331 44.0451 51.4884 45.1344 51.5622V50.5477C43.8091 50.474 42.7379 50.2157 41.9391 49.7546C41.1403 49.2935 40.7409 48.4266 40.7227 47.1355C40.7227 45.8444 41.1585 43.9631 42.1025 41.4546L43.4278 37.9502H54.2845L57.28 46.2686C57.9517 47.984 58.0607 49.1091 57.6068 49.644C57.1529 50.1604 56.0818 50.4555 54.3934 50.5293V51.5437C55.1922 51.47 56.2633 51.4331 57.6431 51.4146C59.0047 51.4146 60.4571 51.3962 61.9821 51.3962C63.3438 51.3962 64.7054 51.3962 66.0488 51.4146C67.3923 51.4146 68.5724 51.47 69.5709 51.5437V50.5293C69.0989 50.4924 68.5724 50.2526 67.9914 49.7915C67.4105 49.3304 66.884 48.5004 66.4119 47.2831L66.3938 47.3015ZM43.7909 36.9542L48.9651 23.25L53.9032 36.9542H43.7909Z" fill="white"/>
<path d="M97.584 34.427C95.7504 33.5232 93.2813 32.933 90.1405 32.7117V32.6195C92.4644 32.1768 94.3706 31.4944 95.823 30.5352C97.2936 29.5946 98.3647 28.5064 99.0727 27.289C99.7626 26.0717 100.126 24.8728 100.126 23.6924C100.126 21.3684 99.109 19.4502 97.0575 17.9562C95.006 16.4622 91.9197 15.7244 87.7985 15.7244C87.1631 15.7244 86.1101 15.7244 84.6033 15.7797C83.1146 15.8166 81.5532 15.8351 79.9556 15.8351C78.5577 15.8351 77.1597 15.8351 75.7437 15.7797C74.3276 15.7428 73.202 15.7059 72.385 15.6875V16.7019C73.4198 16.7388 74.2005 16.8679 74.7451 17.0893C75.2898 17.3106 75.6529 17.7164 75.8526 18.3066C76.0341 18.8968 76.1249 19.819 76.1249 21.0733V46.213C76.1249 47.4303 76.0341 48.3341 75.8526 48.9428C75.671 49.5514 75.308 49.9572 74.7815 50.1601C74.255 50.363 73.4561 50.4921 72.385 50.5659V51.5803C73.2201 51.5065 74.3457 51.4696 75.7437 51.4512C77.1597 51.4512 78.594 51.4328 80.0645 51.4328C82.1524 51.4328 83.9679 51.4512 85.4747 51.5065C86.9816 51.5619 88.1435 51.5803 88.9423 51.5803C93.2269 51.5803 96.6037 50.7319 99.0546 49.0534C101.505 47.3565 102.722 44.9219 102.722 41.7494C102.722 40.3661 102.322 39.0381 101.524 37.747C100.725 36.4559 99.4177 35.3677 97.584 34.4455V34.427ZM84.6396 17.5504C85.0208 16.9786 85.8559 16.6835 87.1631 16.6835C88.8878 16.6835 90.1405 17.3106 90.903 18.5833C91.6655 19.8559 92.0468 21.7373 92.0468 24.2273C92.0468 25.6844 91.8834 27.0493 91.5566 28.3035C91.2298 29.5761 90.6489 30.5906 89.8137 31.3468C88.9786 32.103 87.7804 32.4904 86.2191 32.4904H84.0768V21.0364C84.0768 19.2842 84.2583 18.1222 84.6577 17.5319L84.6396 17.5504ZM92.773 48.0943C91.6655 49.6252 89.9045 50.3999 87.5081 50.3999C86.0738 50.3999 85.1479 50.1416 84.7122 49.6068C84.2765 49.0903 84.0586 47.9468 84.0586 46.1761V33.3572H86.1464C89.1057 33.3572 91.2298 34.0581 92.5007 35.4783C93.7715 36.8986 94.4251 38.909 94.4251 41.5097C94.4251 44.3501 93.8623 46.545 92.7548 48.0759L92.773 48.0943Z" fill="white"/>
<path d="M136.508 47.3015L124.381 15.5771C123.854 15.614 123.273 15.6325 122.656 15.6325C122.039 15.6325 121.458 15.6325 120.931 15.5771L109.548 45.2358C108.858 47.0986 108.132 48.4082 107.406 49.1829C106.68 49.9575 105.953 50.4186 105.263 50.5477V51.5622C105.754 51.4884 106.335 51.4515 106.988 51.4331C107.642 51.4331 108.332 51.4146 109.058 51.4146C110.093 51.4146 111.109 51.4146 112.108 51.4331C113.106 51.4331 114.159 51.4884 115.249 51.5622V50.5477C113.923 50.474 112.852 50.2157 112.053 49.7546C111.255 49.2935 110.855 48.4266 110.837 47.1355C110.837 45.8444 111.273 43.9631 112.217 41.4546L113.542 37.9502H124.399L127.394 46.2686C128.066 47.984 128.175 49.1091 127.721 49.644C127.267 50.1789 126.196 50.4555 124.508 50.5293V51.5437C125.306 51.47 126.378 51.4331 127.757 51.4146C129.119 51.4146 130.571 51.3962 132.096 51.3962C133.458 51.3962 134.82 51.3962 136.163 51.4146C137.507 51.4146 138.687 51.47 139.685 51.5437V50.5293C139.213 50.4924 138.687 50.2526 138.106 49.7915C137.525 49.3304 136.998 48.5004 136.526 47.2831L136.508 47.3015ZM113.905 36.9542L119.079 23.25L124.017 36.9542H113.905Z" fill="white"/>
<path d="M174.706 49.5514C174.416 49.7359 174.071 49.8465 173.635 49.8834C173 49.8834 172.527 49.6068 172.183 49.0719C171.856 48.537 171.529 47.5779 171.239 46.2314L170.095 41.0117C169.659 38.909 168.715 37.3412 167.281 36.2899C165.828 35.2386 163.613 34.593 160.6 34.3163C161.907 34.1688 163.087 33.9475 164.122 33.6339C166.046 33.0437 167.571 32.2506 168.679 31.2546C169.786 30.2586 170.585 29.1704 171.057 28.0084C171.529 26.8464 171.747 25.6844 171.747 24.5408C171.747 21.7373 170.603 19.5608 168.297 18.0299C166.01 16.4991 162.542 15.7244 157.913 15.7244C157.277 15.7244 156.224 15.7244 154.718 15.7797C153.229 15.8166 151.667 15.8351 150.07 15.8351C148.672 15.8351 147.274 15.8351 145.858 15.7797C144.442 15.7428 143.316 15.7059 142.499 15.6875V16.7019C143.534 16.7388 144.315 16.8679 144.859 17.0893C145.404 17.3106 145.767 17.7164 145.967 18.3066C146.148 18.8968 146.239 19.819 146.239 21.0733V46.213C146.239 47.4303 146.148 48.3341 145.967 48.9428C145.785 49.5514 145.422 49.9572 144.896 50.1601C144.369 50.363 143.57 50.4921 142.499 50.5659V51.5803C143.334 51.5065 144.46 51.4696 145.858 51.4512C147.274 51.4512 148.781 51.4328 150.379 51.4328C151.776 51.4328 153.156 51.4328 154.518 51.4512C155.879 51.4512 157.005 51.5065 157.913 51.5803V50.5659C156.842 50.4921 156.043 50.363 155.516 50.1601C154.99 49.9572 154.627 49.5514 154.445 48.9428C154.264 48.3341 154.173 47.4303 154.173 46.213V34.5561H157.423C158.457 34.5561 159.256 34.8697 159.837 35.4968C160.418 36.1239 160.872 36.9723 161.217 38.0237C161.544 39.0935 161.834 40.3292 162.07 41.7494L162.96 46.8217C163.323 48.9243 164.085 50.3445 165.247 51.1376C166.409 51.9123 167.898 52.2996 169.695 52.2996C171.166 52.2996 172.4 52.0783 173.435 51.6172C174.47 51.1561 175.432 50.4183 176.322 49.367L175.632 48.7583C175.305 49.1272 174.997 49.4039 174.706 49.5883V49.5514ZM154.754 17.5319C155.135 16.9602 155.97 16.6651 157.277 16.6651C159.547 16.6651 161.126 17.4028 162.07 18.8784C162.996 20.3539 163.468 22.4197 163.468 25.0941C163.468 26.6435 163.268 28.0637 162.887 29.3179C162.506 30.5906 161.798 31.605 160.781 32.3612C159.765 33.1175 158.276 33.5048 156.315 33.5048H154.173V21.0364C154.173 19.2842 154.354 18.1222 154.754 17.5319Z" fill="white"/>
<path d="M206.858 43.8524C206.858 42.1002 206.913 40.6799 207.004 39.5917H205.86C205.424 42.303 204.807 44.4426 203.99 46.0288C203.173 47.615 202.192 48.7401 201.049 49.4041C199.905 50.0681 198.58 50.4001 197.073 50.4001H194.622C193.623 50.4001 192.879 50.3079 192.407 50.1419C191.917 49.9759 191.608 49.6439 191.427 49.1275C191.263 48.6295 191.172 47.8364 191.172 46.8035V34.0215H192.77C194.095 34.0215 195.185 34.3351 196.02 34.9622C196.855 35.5893 197.49 36.4008 197.944 37.4153C198.398 38.4297 198.707 39.5364 198.87 40.7168H200.014C199.887 38.7986 199.796 37.3231 199.76 36.3086C199.723 35.2942 199.705 34.372 199.705 33.5235C199.705 32.6751 199.705 31.7528 199.687 30.7384C199.687 29.724 199.723 28.2484 199.869 26.3302H198.725C198.561 27.234 198.253 28.2115 197.835 29.2444C197.4 30.2773 196.782 31.1626 195.984 31.9004C195.185 32.6382 194.114 33.0071 192.788 33.0071H191.191V20.428C191.191 19.3398 191.263 18.5651 191.445 18.0671C191.608 17.5691 191.935 17.2555 192.425 17.0711C192.915 16.9051 193.642 16.8129 194.64 16.8129H196.692C198.18 16.8129 199.487 17.108 200.613 17.6982C201.72 18.2884 202.628 19.3029 203.336 20.7415C204.026 22.1802 204.553 24.1353 204.879 26.5884H206.023C205.987 26.1826 205.951 25.6846 205.932 25.076C205.896 24.4673 205.878 23.8217 205.878 23.1578C205.878 22.42 205.896 21.3502 205.951 19.9669C206.005 18.5835 206.096 17.1449 206.223 15.6509C204.698 15.7247 202.955 15.7615 201.012 15.78C199.07 15.78 197.327 15.7984 195.802 15.7984H191.318C189.448 15.7984 187.469 15.7984 185.381 15.7431C183.293 15.7062 181.332 15.6693 179.535 15.6509V16.6653C180.57 16.7022 181.351 16.8313 181.895 17.0527C182.44 17.274 182.803 17.6798 183.003 18.27C183.184 18.8602 183.275 19.7824 183.275 21.0366V46.1764C183.275 47.3937 183.184 48.2975 183.003 48.9061C182.821 49.5148 182.458 49.9206 181.932 50.1235C181.405 50.3264 180.606 50.4555 179.535 50.5292V51.5437C181.332 51.4699 183.275 51.433 185.381 51.4146C187.469 51.4146 189.448 51.3961 191.318 51.3961H195.802C197.472 51.3961 199.36 51.3961 201.484 51.4146C203.609 51.4146 205.533 51.4699 207.221 51.5437C207.058 50.0312 206.949 48.5557 206.931 47.1355C206.895 45.7153 206.876 44.6086 206.876 43.8339L206.858 43.8524Z" fill="white"/>
<path d="M243.622 24.2825C243.622 23.434 243.64 22.2167 243.695 20.6305C243.749 19.0443 243.84 17.3843 243.967 15.6689C242.496 15.7058 240.863 15.7427 239.029 15.7612C237.195 15.7981 235.38 15.8165 233.564 15.8165H223.652C221.818 15.8165 220.003 15.8165 218.187 15.7612C216.372 15.7243 214.701 15.6874 213.176 15.6689C213.303 17.3843 213.394 19.0443 213.449 20.6305C213.503 22.2167 213.521 23.434 213.521 24.2825C213.521 25.0203 213.521 25.7396 213.503 26.4036C213.503 27.086 213.449 27.6578 213.376 28.1189H214.52C215.119 25.2416 215.827 22.9914 216.608 21.3498C217.406 19.7083 218.369 18.5463 219.494 17.8454C220.62 17.1445 221.963 16.8125 223.488 16.8125H224.596V45.7518C224.596 47.0982 224.469 48.1127 224.196 48.7951C223.924 49.4775 223.416 49.9202 222.653 50.1415C221.891 50.3629 220.765 50.492 219.258 50.5289V51.5433C220.257 51.5064 221.564 51.4695 223.198 51.4511C224.832 51.4142 226.556 51.3958 228.39 51.3958C230.224 51.3958 232.039 51.3958 233.746 51.4511C235.452 51.488 236.832 51.5249 237.867 51.5433V50.5289C236.396 50.492 235.289 50.3629 234.526 50.1415C233.764 49.9202 233.237 49.4775 232.947 48.7951C232.656 48.1127 232.529 47.0982 232.529 45.7518V16.8125H233.673C235.198 16.8125 236.542 17.1629 237.667 17.8454C238.793 18.5463 239.773 19.7083 240.59 21.3683C241.407 23.0283 242.079 25.2785 242.605 28.1189H243.749C243.713 27.6394 243.677 27.0676 243.658 26.4036C243.622 25.7211 243.604 25.0203 243.604 24.2825H243.622Z" fill="white"/>
<path d="M47.1133 7.29554C48.3115 7.29554 48.9651 6.50243 48.9651 5.43266V0.784668H49.8365V5.43266C49.8365 7.03732 48.7291 8.16243 47.0952 8.16243C45.4612 8.16243 44.3538 7.03732 44.3538 5.43266V0.784668H45.2252V5.43266C45.2252 6.50243 45.8969 7.29554 47.0952 7.29554H47.1133Z" fill="white"/>
<path d="M57.9699 8.03332H53.4312V0.784668H54.3026V7.16643H57.9699V8.01488V8.03332Z" fill="white"/>
<path d="M63.5618 1.63311V8.03332H62.6903V1.63311H60.4573V0.784668H65.813V1.63311H63.5799H63.5618Z" fill="white"/>
<path d="M74.2549 8.03332H73.3653C73.2927 7.83043 73.2382 7.59065 73.2382 7.25865V6.26266C73.2382 5.56177 72.8751 5.17444 72.0581 5.17444H69.7162V8.03332H68.8447V0.784668H72.0037C73.4561 0.784668 74.3094 1.68844 74.3094 2.97955C74.3094 3.75422 73.9463 4.38133 73.329 4.73177C73.8192 5.02688 74.0733 5.52488 74.0733 6.26266V7.16643C74.0733 7.4431 74.146 7.83043 74.2186 8.05176L74.2549 8.03332ZM72.04 4.30755C72.8751 4.30755 73.4379 3.79111 73.4379 2.97955C73.4379 2.03889 72.8751 1.63311 72.0037 1.63311H69.7162V4.32599H72.0218L72.04 4.30755Z" fill="white"/>
<path d="M78.6846 5.9121L77.9221 8.01477H76.978L79.665 0.766113H80.6453L83.2959 8.01477H82.3156L81.5712 5.9121H78.6846ZM80.137 1.85433L78.9751 5.0821H81.2807L80.137 1.85433Z" fill="white"/>
<path d="M94.4069 8.03332H91.3206V0.784668H94.3887C95.6596 0.784668 96.4402 1.55933 96.4402 2.73977C96.4402 3.27466 96.1679 3.88333 95.5507 4.21533C96.3132 4.49199 96.6399 5.17444 96.6399 5.91221C96.6399 7.1111 95.7867 8.03332 94.425 8.03332H94.4069ZM92.192 3.82799H94.425C94.9515 3.82799 95.5688 3.53288 95.5688 2.73977C95.5688 1.94666 95.1149 1.65155 94.3887 1.65155H92.192V3.84644V3.82799ZM94.425 4.67644H92.192V7.18488H94.4614C95.2239 7.18488 95.7685 6.72377 95.7685 5.93066C95.7685 5.02688 95.2239 4.67644 94.425 4.67644Z" fill="white"/>
<path d="M104.483 8.03332H99.9441V0.784668H100.816V7.16643H104.483V8.01488V8.03332Z" fill="white"/>
<path d="M108.55 5.9121L107.787 8.01477H106.843L109.53 0.766113H110.51L113.161 8.01477H112.181L111.436 5.9121H108.55ZM110.002 1.85433L108.84 5.0821H111.146L110.002 1.85433Z" fill="white"/>
<path d="M119.225 8.14386C117.264 8.14386 115.684 6.44697 115.684 4.36276C115.684 2.27854 117.264 0.600098 119.225 0.600098C120.84 0.600098 122.039 1.57765 122.492 3.01632H121.585C121.203 2.11254 120.386 1.44854 119.225 1.44854C117.754 1.44854 116.556 2.77654 116.556 4.36276C116.556 5.94898 117.754 7.27697 119.225 7.27697C120.278 7.27697 121.149 6.66831 121.585 5.7092H122.492C122.002 7.18475 120.75 8.12541 119.225 8.12541V8.14386Z" fill="white"/>
<path d="M126.487 5.46955V8.03332H125.615V0.784668H126.487V4.32599L130.081 0.784668H131.298L128.338 3.66199L131.425 8.03332H130.336L127.721 4.2891L126.505 5.48799L126.487 5.46955Z" fill="white"/>
<path d="M146.275 8.03332H145.404V1.96511L143.316 8.03332H142.372L140.284 1.96511V8.03332H139.413V0.784668H140.756L142.862 6.88977L144.95 0.784668H146.275V8.03332Z" fill="white"/>
<path d="M150.923 5.9121L150.161 8.01477H149.217L151.903 0.766113H152.884L155.534 8.01477H154.554L153.81 5.9121H150.923ZM152.376 1.85433L151.214 5.0821H153.519L152.376 1.85433Z" fill="white"/>
<path d="M160.691 8.14386C159.038 8.14386 157.967 7.16631 157.967 5.72764H158.875C158.875 6.70519 159.619 7.29542 160.691 7.29542C161.907 7.29542 162.506 6.77897 162.506 5.96742C162.506 5.35875 162.234 4.95298 160.672 4.67631C159.093 4.39965 158.185 3.90165 158.185 2.64743C158.185 1.39321 159.166 0.600098 160.672 0.600098C162.179 0.600098 163.196 1.44854 163.196 2.85032H162.306C162.306 2.00187 161.744 1.44854 160.672 1.44854C159.601 1.44854 159.057 1.94654 159.057 2.61054C159.057 3.23765 159.383 3.5512 160.836 3.82787C162.397 4.12298 163.359 4.58409 163.359 5.96742C163.359 7.35075 162.252 8.14386 160.672 8.14386H160.691Z" fill="white"/>
<path d="M169.768 8.14386C167.807 8.14386 166.228 6.44697 166.228 4.36276C166.228 2.27854 167.807 0.600098 169.768 0.600098C171.384 0.600098 172.582 1.57765 173.036 3.01632H172.128C171.747 2.11254 170.93 1.44854 169.768 1.44854C168.297 1.44854 167.099 2.77654 167.099 4.36276C167.099 5.94898 168.297 7.27697 169.768 7.27697C170.821 7.27697 171.692 6.66831 172.128 5.7092H173.036C172.546 7.18475 171.293 8.12541 169.768 8.12541V8.14386Z" fill="white"/>
<path d="M177.121 5.9121L176.358 8.01477H175.414L178.101 0.766113H179.081L181.732 8.01477H180.752L180.007 5.9121H177.121ZM178.573 1.85433L177.411 5.0821H179.717L178.573 1.85433Z" fill="white"/>
<path d="M190.065 8.03332H189.176C189.103 7.83043 189.049 7.59065 189.049 7.25865V6.26266C189.049 5.56177 188.685 5.17444 187.868 5.17444H185.526V8.03332H184.655V0.784668H187.814C189.266 0.784668 190.12 1.68844 190.12 2.97955C190.12 3.75422 189.757 4.38133 189.139 4.73177C189.629 5.02688 189.884 5.52488 189.884 6.26266V7.16643C189.884 7.4431 189.956 7.83043 190.029 8.05176L190.065 8.03332ZM187.85 4.30755C188.685 4.30755 189.248 3.79111 189.248 2.97955C189.248 2.03889 188.685 1.63311 187.814 1.63311H185.526V4.32599H187.832L187.85 4.30755Z" fill="white"/>
<path d="M194.477 5.9121L193.714 8.01477H192.77L195.457 0.766113H196.438L199.088 8.01477H198.108L197.363 5.9121H194.477ZM195.929 1.85433L194.767 5.0821H197.073L195.929 1.85433Z" fill="white"/>
<path d="M70.9868 58.4601C71.1865 58.6446 71.4407 58.7552 71.6767 58.7552C71.6949 58.7552 71.7312 58.7552 71.7493 58.7552C72.3484 58.6999 73.0928 57.9068 73.0928 57.3166C73.0928 56.4681 71.7312 56.1177 71.1684 56.1177C70.7871 56.1177 70.6056 56.2652 70.5148 56.3943C70.424 56.5235 70.3514 56.7632 70.4785 57.1506C70.4785 57.6855 70.6782 58.165 70.9868 58.4601Z" fill="white"/>
<path d="M86.4912 58.7553C85.4745 58.7553 82.7694 60.6919 82.7513 60.7104C82.3156 61.0055 81.9162 61.3559 81.5349 61.7064C81.4623 61.7617 81.4078 61.817 81.3352 61.8908C81.3897 61.6695 81.4623 61.4481 81.5349 61.1899C81.7164 60.7473 81.7165 60.3968 81.5712 60.1201C81.3897 59.8066 81.0084 59.6037 80.373 59.5115L80.1733 59.4746L79.8828 60.7473C79.8102 61.0793 79.7376 61.4297 79.6468 61.7617C79.6468 61.7617 79.6105 61.7617 79.5923 61.7617C79.4289 61.7617 79.2292 61.817 79.1385 61.8539C77.0143 62.5548 70.7872 64.5284 69.9521 64.5284C69.8976 64.5284 69.8068 64.5284 69.7705 64.473C69.7705 64.4546 69.7161 64.3808 69.7524 64.1964C69.9521 62.8868 70.3333 61.3928 71.5315 60.2861L71.6768 60.157L71.5679 59.991C71.2411 59.5115 70.8054 59.2533 70.3515 59.2533C69.4619 59.2533 68.7538 60.6919 68.3 62.0015C68.2637 62.0199 68.2092 62.0568 68.191 62.0753C66.2485 62.8868 64.2151 63.2926 62.1273 63.2926C61.6371 63.2926 61.1651 63.2557 60.7294 63.2372C60.7838 62.9975 60.8565 62.7761 60.9109 62.5548C61.0925 61.9461 61.2559 61.3559 61.3285 60.7657C61.4011 60.1201 61.1469 59.3639 60.6386 58.7368C60.1303 58.1281 59.4767 57.7593 58.8776 57.7408C58.4419 57.7224 57.9335 57.9437 57.5341 58.331C56.9895 58.8475 56.6808 59.6037 56.6808 60.3046C56.6445 60.8764 56.463 61.3375 56.1543 61.7801C55.9002 61.817 55.5552 61.9461 55.3011 62.149C53.8668 63.4032 51.0347 64.805 49.2736 64.805C48.965 64.805 48.729 64.6944 48.5837 64.2148C48.2206 62.813 47.6941 60.6735 45.7334 60.6735C45.3703 60.6735 44.8257 60.7473 44.1721 61.0977C43.7364 61.3375 43.337 61.5957 42.8831 61.8724C42.7742 61.9461 42.6652 62.0015 42.5563 62.0753C42.7197 61.7064 42.8831 61.3928 43.0283 61.0608C43.1373 60.7841 43.1554 60.5259 43.0646 60.323C42.9739 60.1201 42.8105 59.9726 42.5745 59.8988C42.3929 59.8066 42.1932 59.7513 42.048 59.7513C41.8483 59.7513 41.5759 59.8435 41.3762 60.2308C41.0131 60.9501 40.6682 61.651 40.3051 62.3519C39.9602 63.0344 39.6334 63.6984 39.2884 64.3992C39.0161 64.971 39.1432 65.4506 39.6697 65.8564C39.9965 66.0777 40.2506 66.1699 40.4685 66.1699C40.759 66.1699 41.0131 65.9855 41.2128 65.8195C41.9935 65.0264 45.4793 62.0937 46.0602 62.0937C46.0965 62.0937 46.2236 62.0937 46.3507 62.481C46.6412 63.6984 47.2221 66.2252 49.6367 66.2252C51.5248 66.2252 53.7397 65.2477 55.41 64.0672C55.41 64.9157 55.8639 65.4506 56.3177 65.7826C56.6082 66.0039 56.9532 66.1146 57.3526 66.1146C58.0243 66.1146 58.7505 65.7457 59.3496 65.1001C59.7309 64.6021 60.0576 64.3808 60.5115 64.3808C60.6386 64.3808 60.8202 64.4177 61.0562 64.4915C61.2559 64.5284 61.5645 64.5837 61.8368 64.5837C64.1243 64.5837 66.1577 64.2332 67.9187 63.5692C67.8824 64.1226 68.0095 64.6575 68.3363 65.0817C68.772 65.6535 69.4619 65.9855 70.2244 65.9855C71.1866 65.9855 72.167 65.7088 72.6572 65.5428C74.9084 64.8235 77.1596 64.0488 79.3382 63.311C79.1021 64.307 78.8843 65.2846 78.6664 66.2806C78.612 66.6864 79.0477 67.2581 79.4108 67.4057C79.556 67.4795 79.6286 67.5163 79.7194 67.5163C80.0644 67.5163 80.2096 67.1475 80.3367 66.8892C80.3548 66.8339 80.373 66.797 80.4093 66.7417C81.1537 65.0264 82.0796 63.2741 83.6953 62.0199C83.8224 61.9092 83.9495 61.817 84.0766 61.7064C85.057 60.9133 85.9829 60.157 87.29 60.157H87.9436L87.8165 59.8435C87.635 59.3824 87.3082 58.7737 86.5457 58.7737L86.4912 58.7553ZM58.5689 63.7168C58.4237 63.8275 58.2603 63.9381 58.1151 64.0488C57.7883 64.307 57.4615 64.5468 57.1529 64.7128H57.0802C56.8987 64.805 56.8261 64.7681 56.8079 64.7497C56.7535 64.6944 56.7534 64.5652 56.7716 64.4361C56.8805 63.975 57.0258 63.5139 57.1892 63.0344C57.2436 62.9052 57.2799 62.7577 57.3344 62.6101L57.5341 62.7946C57.8791 63.1081 58.2058 63.3848 58.5508 63.6984L58.5689 63.7168ZM58.2422 61.6695C58.2422 61.6695 58.2603 61.3744 58.2785 61.2084C58.3511 60.6919 58.3692 60.323 58.2785 60.0833C58.4237 59.8435 58.5508 59.6221 58.6779 59.4561C58.932 59.1979 59.1136 59.0873 59.2588 59.0873C59.3496 59.0873 59.6401 59.0873 59.8761 59.659C60.0758 60.1755 59.6038 62.2597 59.1862 62.6101C59.1862 62.6101 59.1499 62.6286 59.1136 62.647C59.0228 62.5364 58.9139 62.4441 58.805 62.3335C58.5689 62.0937 58.3329 61.8724 58.2058 61.651L58.2422 61.6695Z" fill="white"/>
<path d="M122.148 60.1387L122.02 59.8252C121.839 59.364 121.512 58.7554 120.75 58.7554C119.751 58.7554 117.028 60.692 117.01 60.7105C116.574 61.0056 116.175 61.356 115.793 61.7065C115.721 61.7618 115.666 61.8171 115.594 61.8909C115.648 61.6696 115.703 61.4483 115.793 61.19C115.975 60.7474 115.975 60.3969 115.83 60.1203C115.648 59.8067 115.267 59.6038 114.631 59.5116L114.432 59.4747L114.214 60.4154C114.105 60.8949 113.996 61.3376 113.887 61.7987C113.742 61.8171 113.615 61.8725 113.506 61.9463C113.451 61.9831 113.397 62.02 113.342 62.0385C112.943 62.186 112.562 62.3336 112.162 62.4996C111.091 62.9238 109.984 63.348 108.876 63.6431C108.495 63.7538 108.205 63.7907 107.914 63.7907C107.624 63.7907 107.533 63.7169 107.496 63.6616C107.351 63.4956 107.315 63.0898 107.406 62.4627C107.442 62.1123 107.333 61.7803 107.115 61.5036C106.843 61.19 106.389 61.0056 105.935 61.0056C105.826 61.0056 105.645 60.8949 105.499 60.7474C104.991 60.2309 104.428 59.9543 103.847 59.9543C103.629 59.9543 103.412 59.9911 103.139 60.0834C101.16 60.7474 99.8714 62.0385 99.1815 64.0305C98.9637 64.8051 99.1452 65.4507 99.708 65.8934C99.9622 66.0594 100.434 66.2622 100.815 66.2622C101.578 66.2622 103.666 64.8789 104.011 64.6207C104.483 64.3071 104.918 63.9567 105.391 63.5694C105.572 63.4034 105.772 63.2558 105.971 63.0898C106.244 64.0489 106.807 65.1187 108.223 65.1187C110.02 65.1187 112.053 64.2702 113.524 63.5325C113.324 64.4362 113.125 65.34 112.925 66.2438C112.87 66.6496 113.306 67.2214 113.669 67.3689C113.796 67.4242 113.887 67.4796 113.978 67.4796C114.323 67.4796 114.468 67.1107 114.595 66.8525C114.613 66.7971 114.631 66.7602 114.668 66.7049C115.412 64.9896 116.338 63.2374 117.954 61.9831C118.081 61.8725 118.208 61.7803 118.353 61.6696C119.333 60.8765 120.259 60.1203 121.567 60.1203H122.22L122.148 60.1387ZM104.664 61.6696C104.664 61.6696 104.646 61.8171 104.628 61.8356C103.412 62.7209 102.159 63.6063 100.979 64.4363C101.505 63.0898 103.049 61.6696 104.21 61.5036C104.356 61.5036 104.501 61.5589 104.664 61.6696Z" fill="white"/>
<path d="M154.971 58.4601C155.171 58.6446 155.425 58.7552 155.661 58.7552C155.679 58.7552 155.716 58.7552 155.734 58.7552C156.333 58.6999 157.077 57.9068 157.077 57.3166C157.077 56.4681 155.716 56.1177 155.153 56.1177C154.772 56.1177 154.59 56.2652 154.499 56.3943C154.409 56.5235 154.336 56.7632 154.463 57.1506C154.463 57.6855 154.663 58.165 154.971 58.4601Z" fill="white"/>
<path d="M212.305 62.0014C212.069 61.8723 211.76 61.7247 211.47 61.7616C210.671 62.0014 209.89 62.2412 209.109 62.4994C207.893 62.8867 206.622 63.2925 205.388 63.606C204.988 63.6983 204.553 63.8089 204.081 63.9196C202.265 64.3623 199.996 64.9156 197.89 64.9156C196.891 64.9156 196.074 64.8049 195.384 64.602C195.203 64.5467 195.021 64.4545 195.112 63.9196C195.185 63.6245 195.275 63.606 195.675 63.606C197.381 63.606 198.797 62.9236 200.286 61.4112C200.94 60.6734 200.794 60.0463 200.54 59.6405C200.159 59.0687 199.705 58.7736 199.179 58.7736C197.418 58.7736 195.384 60.5258 194.513 61.6141C194.458 61.6878 194.404 61.7432 194.331 61.7985C194.295 61.8354 194.259 61.8907 194.204 61.946C193.26 62.1674 192.316 62.4072 191.372 62.6285L188.939 63.2187C188.54 63.2187 188.504 63.1818 188.504 62.8498C188.504 62.2043 188.504 60.6918 187.088 60.6918C186.797 60.6918 186.507 60.8025 186.216 60.9132C185.708 61.2083 185.199 61.5218 184.709 61.8354C184.219 62.1489 183.729 62.444 183.239 62.7392C182.749 63.0158 182.24 63.2925 181.677 63.4954C181.514 63.5692 181.278 63.5507 181.26 63.5323C181.26 63.5323 181.205 63.44 181.314 63.1265C181.732 61.8723 182.149 60.8763 183.202 60.3414L183.42 60.2307L183.311 60.0278C183.003 59.4376 182.621 59.1425 182.168 59.1425C181.804 59.1425 181.514 59.3085 181.242 59.6589C180.697 60.3414 180.261 61.0976 179.916 61.7063C179.717 61.7432 179.517 61.8169 179.335 61.9092C179.208 61.9829 179.081 62.0383 178.954 62.0567C176.721 62.61 174.488 63.1265 172.237 63.6614C171.638 63.772 171.002 63.8458 170.349 63.9196C170.185 63.938 170.004 63.9565 169.84 63.9749C170.095 63.5876 170.349 63.2003 170.585 62.8129C170.839 62.4072 171.093 62.0014 171.365 61.6141C171.856 60.9685 171.583 60.4336 171.22 59.9909C171.093 59.8618 170.966 59.7327 170.748 59.7327C170.512 59.7327 170.312 59.8987 170.113 60.0647L170.004 60.1569C169.786 60.3414 169.532 60.5443 169.259 60.7656C168.824 60.2492 168.243 59.7143 167.408 59.7143C166.264 59.7143 164.92 60.5996 163.867 61.7432C163.777 61.7247 163.704 61.7063 163.631 61.7063C163.468 61.7063 163.286 61.7616 163.178 61.7985C160.636 62.6285 154.772 64.4729 153.991 64.4729C153.937 64.4729 153.846 64.4729 153.81 64.4176C153.81 64.3992 153.755 64.3254 153.791 64.1409C153.991 62.8314 154.372 61.3374 155.571 60.2307L155.716 60.1016L155.607 59.9356C155.28 59.456 154.844 59.1978 154.391 59.1978C153.537 59.1978 152.866 60.5074 152.393 61.78C149.67 62.3334 146.112 63.1818 142.735 64.6574C142.681 64.6574 142.626 64.6758 142.572 64.6943C142.572 64.6943 142.572 64.6943 142.554 64.6943C141.7 62.7945 140.302 62.3518 138.487 63.3847C137.815 63.7536 137.234 64.2332 136.599 64.7312C136.453 64.8418 136.29 64.9709 136.145 65.0816C136.181 64.9709 136.199 64.8787 136.236 64.768C136.326 64.4545 136.417 64.1225 136.49 63.7905C136.599 63.1818 136.889 62.7023 137.379 62.2965C141.355 59.2532 146.275 53.3141 147.655 48.6107C147.964 47.5041 148.091 46.379 147.982 45.4567C147.891 44.387 147.092 43.6123 146.057 43.6123C143.243 43.6123 139.867 50.1047 139.83 50.1785C138.051 53.6092 136.617 57.4641 135.491 61.7985C135.346 61.8169 135.219 61.8723 135.11 61.946C135.056 61.9829 135.001 62.0198 134.947 62.0383C134.547 62.1858 134.148 62.3334 133.767 62.4994C132.695 62.9236 131.606 63.3478 130.481 63.6429C130.099 63.7536 129.809 63.7905 129.518 63.7905C129.228 63.7905 129.137 63.7167 129.101 63.6614C128.955 63.4954 128.919 63.0896 129.01 62.4625C129.046 62.112 128.937 61.78 128.719 61.5034C128.447 61.1898 127.993 61.0054 127.539 61.0054C127.43 61.0054 127.249 60.8947 127.104 60.7472C126.595 60.2307 126.033 59.9541 125.452 59.9541C125.234 59.9541 125.016 59.9909 124.744 60.0832C122.765 60.7472 121.476 62.0383 120.786 64.0303C120.568 64.8049 120.749 65.4505 121.312 65.8932C121.566 66.0592 122.038 66.262 122.42 66.262C123.182 66.262 125.27 64.8787 125.615 64.6205C126.087 64.3069 126.523 63.9565 126.995 63.5692C127.176 63.4032 127.376 63.2556 127.576 63.0896C127.848 64.0487 128.411 65.1185 129.827 65.1185C131.588 65.1185 133.621 64.2885 135.074 63.5692C134.729 65.0447 134.402 66.5571 134.13 68.1434C134.093 68.4569 134.22 68.7705 134.329 69.0471C134.348 69.1025 134.384 69.1763 134.402 69.2316C134.438 69.4529 134.711 69.4529 134.82 69.4529C134.983 69.4529 135.237 69.4529 135.328 69.2685C135.509 68.9734 135.673 68.6598 135.836 68.3463C136.054 67.9036 136.272 67.4978 136.544 67.1289C137.597 65.7087 138.795 64.8049 140.23 64.3254C140.556 64.1963 140.883 64.0118 141.047 64.4914C141.174 65.0447 141.228 65.3767 140.738 65.6718C138.741 66.8891 137.779 67.6638 136.399 69.5636C135.945 70.08 135.981 70.7625 136.472 71.2605C136.744 71.574 137.071 71.74 137.434 71.74C137.706 71.74 137.924 71.6478 138.214 71.5187C140.357 70.3198 141.718 68.7889 142.372 66.8707C142.499 66.4649 142.717 66.2251 143.116 66.0407C145.604 64.8972 148.381 63.9749 152.012 63.108C151.831 63.8274 151.958 64.5283 152.357 65.0816C152.793 65.6534 153.483 65.9854 154.245 65.9854C155.208 65.9854 156.188 65.7087 156.678 65.5427C158.693 64.8972 160.69 64.2332 162.633 63.5692C162.342 64.104 162.143 64.6389 162.106 65.1C162.052 65.6349 162.215 66.1329 162.524 66.4834C162.923 66.926 163.504 67.092 164.194 66.8154C165.102 66.4096 165.864 65.8378 166.681 65.2476L166.917 65.0632C167.299 64.7496 167.644 64.3992 167.989 64.0303C168.025 63.9934 168.043 63.9749 168.079 63.938V63.9749C166.209 68.42 164.358 73.1787 163.994 78.3247C163.904 79.1362 164.303 79.8371 165.047 80.1691C165.12 80.1876 165.338 80.2613 165.519 80.2613C166.137 80.2613 166.554 79.7633 166.808 79.4129C167.081 79.044 167.371 78.6936 167.644 78.3247C168.606 77.1073 169.604 75.8347 170.367 74.4514C172.164 71.0576 172.128 68.1434 170.258 65.4874C170.258 65.4874 170.24 65.4689 170.222 65.4505C170.276 65.4505 170.349 65.4136 170.403 65.3952C170.893 65.3029 171.402 65.2107 171.892 65.1C173.199 64.8418 174.561 64.5836 175.886 64.27C177.084 63.9934 178.264 63.6245 179.426 63.2925L179.68 63.2187C179.735 63.5507 179.88 63.8643 180.134 64.1594C180.643 64.7312 181.223 65.0263 181.804 65.0263C182.64 65.0263 184.038 64.2332 184.328 64.0672L185.308 63.44C185.871 63.0896 186.434 62.7207 187.033 62.3518C187.033 62.3887 187.051 62.4256 187.069 62.4625C187.287 63.8274 187.995 64.4729 189.302 64.4729C189.793 64.4729 190.301 64.3992 190.827 64.3069C191.318 64.1594 191.808 64.0303 192.298 63.8827C192.806 63.7352 193.333 63.5692 193.859 63.4216C193.859 64.8234 194.513 65.7825 195.784 66.1145C196.383 66.2805 197.109 66.3543 197.89 66.3543C200.377 66.3543 203.463 65.5796 205.733 65.0078C206.223 64.8787 206.677 64.768 207.076 64.6758C208.347 64.3807 209.6 63.938 210.798 63.5138C211.215 63.3663 211.633 63.2187 212.069 63.0712C212.287 62.9789 212.414 62.7392 212.523 62.5178C212.541 62.4625 212.577 62.4072 212.595 62.3703L212.722 62.1489L212.395 61.9829L212.305 62.0014ZM196.238 62.2043C196.855 61.3558 198.126 60.618 199.106 60.3967C198.253 61.3189 197.309 61.9092 196.238 62.2043ZM167.625 61.2452L167.662 61.2083C167.825 61.2083 168.025 61.282 168.206 61.3558C168.206 61.3927 168.188 61.4112 168.17 61.4481C168.116 61.6325 168.061 61.7985 167.989 61.8907C166.863 62.9052 165.701 63.9012 164.557 64.8603L164.485 64.9156C164.249 65.1 163.976 65.2291 163.686 65.3767C163.65 65.3767 163.631 65.4136 163.595 65.4136C164.376 63.3109 165.683 61.946 167.589 61.2267H167.625V61.2452ZM169.967 70.7809C169.532 73.1787 167.408 76.6647 165.411 78.3985C165.411 78.1587 165.411 77.9374 165.411 77.7529C166.064 73.6398 167.535 69.6743 169.023 65.9854C170.022 67.3134 170.331 68.8443 169.967 70.7994V70.7809ZM139.703 68.1065C139.249 68.6967 138.741 69.1947 138.142 69.6005C138.541 69.0287 139.068 68.5491 139.703 68.1065ZM137.343 60.7472C137.543 60.1754 137.742 59.5852 137.942 59.0134C138.269 58.0727 138.596 57.0952 138.941 56.1361C139.903 53.5907 141.101 50.6765 142.971 48.1865C143.715 47.209 144.659 46.3421 145.567 45.4936L145.84 45.2539C145.967 45.1247 146.203 45.0325 146.475 45.0325C146.584 45.0325 146.62 45.0325 146.657 45.0325C146.711 45.0879 146.802 45.4383 146.802 45.8256C146.729 50.1232 142.299 55.3983 140.411 57.4825C139.903 58.0543 139.376 58.5892 138.868 59.1425C138.378 59.6774 137.87 60.2123 137.398 60.7287L137.343 60.7472ZM126.269 61.6694C126.269 61.6694 126.25 61.8169 126.232 61.8354C125.016 62.7207 123.763 63.606 122.583 64.436C123.11 63.0896 124.653 61.6694 125.815 61.5034C125.96 61.5034 126.105 61.5587 126.269 61.6694Z" fill="white"/>
</svg>
